<?xml version="1.0" standalone="no"?>
<!DOCTYPE svg PUBLIC "-//W3C//DTD SVG 20010904//EN"
 "http://www.w3.org/TR/2001/REC-SVG-20010904/DTD/svg10.dtd">
<svg version="1.0" xmlns="http://www.w3.org/2000/svg"
 width="741.000000pt" height="689.000000pt" viewBox="0 0 741.000000 689.000000"
 preserveAspectRatio="xMidYMid meet">

<g transform="translate(0.000000,689.000000) scale(0.100000,-0.100000)"
fill="#000000" stroke="none">
<path d="M0 3445 l0 -3445 3705 0 3705 0 0 3445 0 3445 -3705 0 -3705 0 0
-3445z m3975 3055 c700 -58 1353 -347 1850 -819 515 -489 826 -1084 937 -1795
14 -94 21 -201 25 -376 4 -212 2 -269 -16 -413 -66 -520 -218 -930 -499 -1352
l-87 -130 -6 90 c-8 101 -34 198 -52 192 -7 -2 -14 -12 -15 -23 -8 -39 -22
-38 -22 1 0 86 -28 212 -57 261 -61 103 -68 114 -76 114 -19 0 -67 -150 -67
-212 0 -44 -16 -50 -30 -12 -11 27 -28 28 -41 3 -28 -50 -50 -117 -60 -180
-13 -87 -7 -313 12 -411 7 -38 10 -71 6 -74 -3 -4 -25 -8 -49 -11 -40 -4 -47
-1 -89 39 -26 23 -83 62 -128 86 -73 39 -81 46 -81 73 0 40 28 38 62 -5 31
-39 92 -59 140 -45 104 29 126 166 40 247 -70 67 -204 104 -298 83 -31 -7 -57
-11 -58 -9 -2 1 -10 39 -20 83 -16 77 -37 126 -105 248 -38 67 -37 67 -85 -43
-35 -79 -32 -76 -50 -60 -13 10 -14 31 -9 119 3 66 1 140 -6 192 -13 85 -52
247 -73 297 -73 175 -139 281 -222 361 l-56 52 0 70 c0 66 2 74 34 110 18 22
47 65 63 95 30 56 31 57 189 138 207 107 364 195 364 205 0 14 -23 27 -95 54
-193 71 -241 89 -247 93 -4 3 -2 14 5 24 9 16 8 26 -7 55 -17 32 -23 35 -61
35 -38 0 -44 3 -49 26 -8 31 -75 99 -119 119 -83 39 -153 94 -167 130 -6 15 0
28 23 52 17 18 28 36 24 39 -4 4 9 18 28 31 38 26 43 47 20 79 -11 17 -12 27
-3 52 11 29 6 60 -19 120 -3 7 7 17 26 23 18 7 33 20 37 33 7 31 -11 73 -36
81 -18 6 -21 13 -17 38 12 79 -35 105 -241 134 -116 16 -288 11 -276 -8 3 -5
50 -9 105 -9 97 0 346 -33 361 -48 4 -4 10 -21 14 -38 l6 -30 -114 25 c-101
22 -137 25 -340 25 -164 1 -230 -2 -239 -11 -9 -9 -19 -3 -41 29 -17 22 -38
43 -48 45 -10 3 -17 10 -14 17 14 37 -156 163 -277 205 -30 10 -60 16 -66 14
-16 -6 -17 -23 -2 -23 5 0 47 -18 92 -39 89 -43 184 -111 180 -130 -2 -6 0
-10 5 -9 12 4 52 -22 52 -33 0 -6 11 -25 24 -42 14 -18 26 -45 28 -62 4 -35
20 -34 -167 -5 -253 39 -617 27 -792 -26 -46 -14 -88 -22 -95 -18 -6 4 -8 3
-5 -3 4 -6 -1 -14 -10 -17 -30 -12 5 -25 41 -15 86 22 204 40 329 49 278 22
687 -25 737 -85 16 -19 1 -45 -25 -45 -34 0 -56 10 -48 23 3 6 1 7 -5 3 -7 -4
-40 0 -74 8 -95 23 -181 35 -310 42 -65 4 -118 11 -118 16 0 5 -3 7 -7 5 -5
-3 -78 -10 -163 -17 -155 -11 -325 -35 -367 -51 -29 -11 -29 -32 -2 -61 92
-100 117 -115 257 -155 200 -56 644 -79 751 -39 35 13 46 14 53 4 24 -38 -72
-55 -347 -63 -119 -4 -411 24 -484 46 -107 32 -151 20 -68 -20 68 -33 153 -51
307 -66 166 -17 265 -18 365 -5 38 5 71 7 72 6 5 -4 -138 -72 -179 -86 -79
-25 -47 -47 34 -24 29 9 65 18 80 21 15 3 26 8 23 12 -2 4 1 8 8 8 7 0 39 16
70 36 32 21 63 37 70 37 7 0 30 9 50 19 34 17 42 18 71 6 19 -8 62 -19 97 -24
96 -15 395 -23 472 -13 l68 9 -32 -26 c-75 -59 -231 -90 -364 -73 -47 6 -72 6
-77 -1 -3 -6 -28 7 -58 31 -55 44 -84 52 -94 27 -3 -8 -1 -15 5 -15 5 0 20
-10 32 -21 12 -12 36 -30 52 -40 33 -21 27 -26 -8 -7 -24 13 -97 12 -111 -2
-5 -5 -15 -6 -22 -3 -10 4 -12 0 -8 -12 5 -13 3 -16 -7 -13 -8 3 -30 -9 -49
-26 -20 -17 -50 -42 -68 -56 -17 -14 -32 -29 -32 -33 0 -4 -10 -18 -23 -30
-27 -26 -87 -119 -87 -135 0 -7 -4 -12 -10 -12 -5 0 -10 -11 -10 -23 0 -24 -2
-24 -134 -30 -134 -7 -135 -7 -200 23 -36 16 -66 34 -66 40 0 5 -3 9 -7 8 -10
-3 -93 40 -93 48 0 3 5 2 12 -2 7 -4 8 -3 4 5 -4 6 -11 9 -17 6 -9 -6 -185
123 -256 188 -24 22 -40 44 -36 50 3 6 1 7 -6 3 -14 -9 -85 59 -76 74 3 5 0 7
-8 4 -9 -3 -30 14 -55 43 -37 44 -39 50 -27 73 7 14 15 45 19 70 4 25 13 68
21 95 8 28 29 97 45 155 17 58 35 113 40 122 6 10 10 25 10 34 0 26 100 253
151 341 49 87 61 102 94 121 14 8 16 12 5 12 -31 1 52 58 103 71 75 20 249 17
317 -5 82 -26 130 -48 125 -56 -3 -5 3 -6 12 -4 35 9 189 -138 197 -188 1 -7
5 -19 9 -25 8 -12 -4 -18 -26 -14 -5 1 -6 -3 -2 -9 3 -5 2 -10 -3 -10 -15 0
-24 -33 -12 -40 6 -4 46 10 88 30 215 105 389 103 600 -4 61 -31 144 -104 135
-119 -3 -7 -3 -9 2 -5 4 4 14 3 22 -3 15 -13 18 -33 3 -24 -5 3 -10 2 -10 -3
0 -5 11 -9 25 -9 31 0 31 4 2 47 -13 19 -27 50 -30 69 -11 54 -72 144 -142
210 -109 101 -330 192 -435 178 -44 -6 -46 7 -3 18 117 29 305 172 390 296 61
88 80 210 40 257 -34 42 -133 54 -221 27 -90 -28 -278 -143 -398 -246 -31 -27
-59 -49 -62 -49 -3 0 2 24 11 52 22 77 21 202 -4 258 -11 25 -29 53 -40 63
-29 26 -84 32 -119 14 -79 -42 -160 -164 -171 -258 -3 -27 -9 -52 -14 -54 -4
-3 -17 10 -29 30 -44 71 -136 125 -214 125 -38 0 -48 -5 -75 -35 -17 -20 -34
-47 -37 -61 -7 -28 10 -99 38 -158 10 -22 18 -41 18 -42 0 -1 -36 0 -79 3 -75
5 -80 4 -105 -20 -37 -38 -36 -90 4 -127 17 -15 30 -30 30 -33 0 -2 -13 -7
-29 -10 -41 -9 -57 -41 -37 -72 9 -14 16 -26 16 -29 0 -2 -23 -18 -50 -36 -28
-18 -89 -73 -136 -124 -89 -94 -123 -150 -183 -301 -38 -95 -46 -105 -55 -70
-6 25 -10 26 -41 21 -20 -4 -35 -3 -35 2 0 16 -32 23 -46 11 -22 -18 -17 -106
10 -171 l24 -58 -25 0 c-38 0 -60 -16 -88 -64 -36 -61 -51 -72 -72 -55 -14 12
-16 12 -11 -1 3 -9 17 -15 33 -15 22 0 35 8 52 35 49 77 53 80 89 80 l36 0
-45 -52 c-61 -72 -99 -138 -140 -238 -60 -151 -97 -349 -97 -525 0 -160 55
-390 115 -482 10 -15 14 -46 13 -96 -1 -67 -4 -78 -29 -104 -86 -93 -114 -233
-100 -513 5 -99 -7 -250 -20 -250 -5 0 -9 8 -9 18 0 20 -40 107 -63 137 -15
19 -16 19 -36 1 -11 -10 -25 -34 -31 -52 -7 -19 -15 -34 -18 -34 -4 0 -20 40
-35 88 -34 104 -90 210 -175 331 -70 99 -198 241 -216 241 -14 0 -62 -93 -83
-160 -8 -25 -17 -92 -20 -150 -5 -96 -3 -116 26 -230 18 -69 50 -170 72 -224
22 -54 38 -101 36 -103 -3 -2 -26 7 -53 21 -55 28 -157 56 -201 56 -30 0 -30
0 -28 -58 4 -151 116 -343 298 -510 l47 -42 -32 0 c-17 0 -59 -5 -94 -12 -75
-13 -79 -24 -36 -84 86 -118 251 -213 370 -214 44 0 53 -25 62 -171 8 -126 25
-179 68 -207 33 -21 110 -21 144 2 26 17 28 17 130 -32 106 -50 322 -111 473
-132 105 -14 383 -12 525 5 69 8 164 20 212 25 47 6 144 21 215 35 104 21 132
24 150 14 17 -9 26 -9 37 0 11 10 24 6 63 -15 54 -31 83 -28 83 8 l0 23 577
-3 c624 -4 666 -1 702 44 19 24 25 25 144 27 l124 2 -76 -53 c-425 -299 -961
-489 -1495 -532 -743 -59 -1493 159 -2081 605 -466 354 -819 823 -1022 1360
-204 539 -252 1127 -137 1694 185 917 788 1705 1628 2128 487 245 1068 358
1611 313z m305 -1220 c41 -20 75 -42 75 -48 0 -6 4 -14 9 -19 5 -5 6 -3 2 5
-12 20 3 14 44 -19 41 -33 113 -117 89 -105 -8 4 -2 -2 14 -14 47 -38 29 -40
-25 -4 -29 19 -63 37 -75 40 -13 4 -23 11 -23 17 0 6 -2 8 -5 5 -3 -3 -39 5
-79 18 -133 42 -296 32 -433 -27 -24 -10 -43 -14 -43 -9 0 6 6 10 13 11 9 0 9
2 -1 6 -7 3 -21 22 -32 43 l-20 39 70 -20 c119 -33 198 -19 242 42 16 21 17
30 8 55 -6 16 -21 37 -33 46 -36 29 114 -17 203 -62z m-1872 -463 c14 -16 3
-132 -10 -119 -5 5 -12 37 -15 71 -6 61 2 76 25 48z m76 -19 c8 -32 6 -89 -4
-113 -7 -16 -9 -11 -9 22 -1 23 -6 54 -11 68 -10 27 -6 45 9 45 5 0 11 -10 15
-22z m1906 -23 c90 -8 199 -30 258 -52 51 -19 67 -42 48 -68 -13 -18 -18 -18
-117 -2 -202 33 -449 46 -544 29 -35 -6 -43 -4 -71 21 -22 21 -30 35 -26 53 4
23 6 24 151 27 150 3 172 2 301 -8z m-1953 -102 c-2 -16 -4 -5 -4 22 0 28 2
40 4 28 2 -13 2 -35 0 -50z m1048 -18 c146 -10 373 -53 399 -76 14 -12 -4
-105 -25 -128 -24 -26 -49 -27 -49 -3 0 31 -56 99 -107 129 -41 24 -59 28
-124 28 -68 0 -79 -3 -113 -29 -42 -32 -74 -77 -83 -118 -4 -20 -12 -28 -27
-28 -69 0 -303 51 -374 82 -47 20 -132 77 -132 89 0 9 24 15 150 35 205 32
251 34 485 19z m890 -15 c244 -20 267 -28 290 -99 7 -23 -20 -101 -35 -101 -4
0 -10 18 -14 39 -12 79 -91 131 -196 131 -66 0 -135 -55 -175 -138 l-30 -63
-97 6 c-111 7 -206 19 -213 27 -3 3 -1 17 5 32 5 15 10 45 10 66 0 30 5 40 20
45 11 4 28 17 36 30 11 16 27 25 52 28 76 8 231 6 347 -3z m301 -245 c-7 -19
-94 -58 -113 -51 -7 3 -13 1 -13 -4 0 -6 -45 -10 -107 -10 -151 0 -363 12
-358 20 2 3 -10 4 -27 2 -35 -5 -138 17 -138 30 0 9 34 11 43 2 3 -4 26 -7 49
-9 24 -1 111 -5 193 -9 159 -9 346 8 431 38 44 15 49 14 40 -9z m-1831 -355
c28 -25 70 -60 95 -78 105 -74 208 -141 243 -158 20 -10 37 -20 37 -24 0 -3
-29 -11 -65 -18 -36 -7 -84 -19 -108 -28 -23 -9 -52 -17 -64 -18 -11 0 -19 -4
-17 -7 2 -4 -22 -22 -54 -42 -68 -42 -145 -114 -167 -157 -9 -17 -18 -52 -21
-78 -8 -61 24 -111 81 -130 49 -17 251 -10 370 12 145 28 309 54 366 59 l56 5
23 -51 c13 -29 38 -74 56 -102 55 -86 174 -185 221 -185 13 0 23 -4 23 -9 0
-14 165 48 180 68 13 17 97 53 210 91 69 22 133 46 143 51 10 5 32 8 50 6 18
-2 24 -2 14 0 -9 2 -15 9 -12 14 4 5 16 7 28 4 12 -3 42 1 67 9 41 13 42 15
15 16 -28 1 -26 3 20 22 70 29 105 38 105 28 0 -25 -146 -171 -213 -214 -72
-46 -230 -95 -242 -76 -11 18 -59 11 -109 -16 -46 -25 -57 -26 -195 -26 -80
-1 -172 3 -204 7 -43 5 -63 3 -80 -8 -64 -41 -656 53 -1047 168 -82 24 -96 31
-96 49 0 12 -3 76 -7 142 -11 183 9 464 55 752 l21 133 86 -83 c47 -46 109
-103 136 -128z m1693 119 c-6 -19 -27 -57 -47 -86 -28 -40 -39 -49 -52 -43 -9
5 -65 25 -125 45 -60 20 -126 47 -146 61 -41 26 -52 43 -15 22 14 -8 62 -13
137 -13 97 0 126 4 185 25 39 14 71 25 73 24 1 0 -3 -16 -10 -35z m145 -72
c26 -15 47 -30 47 -33 0 -3 -5 -2 -12 2 -7 4 -8 3 -4 -5 4 -6 12 -9 17 -5 10
6 84 -40 96 -59 3 -5 -1 -14 -8 -19 -11 -8 -10 -9 3 -4 10 3 20 1 23 -3 2 -5
-23 -12 -58 -15 -52 -5 -76 -2 -149 22 -49 16 -85 31 -83 34 3 3 -1 8 -10 12
-9 3 -13 2 -10 -4 3 -6 2 -10 -3 -10 -16 0 -22 13 -12 26 6 6 24 40 41 75 l30
62 22 -24 c12 -14 43 -37 70 -52z m187 -187 c8 -5 11 -10 5 -10 -5 0 -17 5
-25 10 -8 5 -10 10 -5 10 6 0 17 -5 25 -10z m97 -6 c10 -27 -12 -37 -43 -20
-25 13 -26 15 -8 16 11 0 25 -5 32 -12 9 -9 12 -8 12 4 0 12 -11 18 -37 21
l-38 4 38 1 c26 1 39 -3 44 -14z m-1397 -144 c-19 -5 -48 -7 -65 -4 -28 3 -28
3 -5 -5 14 -5 41 -10 60 -11 19 -1 29 -4 22 -7 -8 -3 -48 1 -90 8 -70 13 -74
15 -42 20 19 4 62 6 95 7 53 0 56 -1 25 -8z m-235 -25 c17 -7 25 -14 18 -14
-7 -1 -23 4 -37 10 -18 9 -29 9 -38 1 -7 -5 -26 -8 -43 -5 -26 5 -27 7 -10 14
31 12 77 9 110 -6z m-162 -12 c-7 -2 -19 -2 -25 0 -7 3 -2 5 12 5 14 0 19 -2
13 -5z m-43 -13 c0 -5 -15 -10 -32 -9 -31 1 -32 1 -8 9 35 11 40 11 40 0z
m187 4 c-3 -3 -12 -4 -19 -1 -8 3 -5 6 6 6 11 1 17 -2 13 -5z m92 -13 c11 -7
9 -10 -8 -16 -13 -4 -25 -4 -28 -1 -4 3 2 6 13 7 15 1 13 3 -6 9 -21 7 -21 8
-5 9 11 0 26 -3 34 -8z m96 -31 l30 -8 -37 -1 c-21 -1 -38 4 -38 10 0 6 -9 8
-21 4 -15 -5 -19 -4 -14 5 4 7 16 9 29 5 11 -4 35 -10 51 -15z m-460 3 c-64
-14 -96 -43 -62 -56 9 -4 9 -6 0 -6 -6 -1 -14 3 -17 8 -3 5 -16 7 -29 4 l-22
-5 23 17 c39 29 76 45 102 44 20 -1 21 -2 5 -6z m268 0 c-7 -2 -21 -2 -30 0
-10 3 -4 5 12 5 17 0 24 -2 18 -5z m97 -19 c0 -2 -16 -4 -36 -4 -19 0 -33 4
-30 8 5 8 66 4 66 -4z m-85 -4 c-3 -5 -21 -9 -38 -9 l-32 1 30 8 c43 11 47 11
40 0z m-162 -7 c-7 -2 -19 -2 -25 0 -7 3 -2 5 12 5 14 0 19 -2 13 -5z m-110
-10 c-7 -2 -19 -2 -25 0 -7 3 -2 5 12 5 14 0 19 -2 13 -5z m196 3 c-11 -9 -69
-14 -69 -6 0 6 17 10 37 10 20 0 34 -2 32 -4z m328 -12 c-3 -3 -12 -4 -19 -1
-8 3 -5 6 6 6 11 1 17 -2 13 -5z m-675 -26 c-7 -7 -12 -8 -12 -2 0 6 3 14 7
17 3 4 9 5 12 2 2 -3 -1 -11 -7 -17z m165 16 c-3 -3 -12 -4 -19 -1 -8 3 -5 6
6 6 11 1 17 -2 13 -5z m96 -1 c-7 -2 -19 -2 -25 0 -7 3 -2 5 12 5 14 0 19 -2
13 -5z m308 -3 c-30 -5 -91 -11 -135 -13 l-81 -6 80 13 c44 7 105 13 135 13
l55 1 -54 -8z m-400 -26 c-29 -14 -55 -23 -57 -21 -6 6 80 47 96 46 8 0 -9
-12 -39 -25z m-203 -12 c-17 -3 -18 -6 -7 -13 11 -8 10 -9 -6 -7 -15 2 -19 -2
-17 -17 3 -16 1 -18 -9 -7 -11 10 -8 18 16 41 20 18 32 24 37 17 5 -7 -1 -12
-14 -14z m110 11 c-6 -7 -14 -10 -19 -7 -15 9 -10 20 10 20 15 0 17 -3 9 -13z
m24 -18 c-2 -14 -9 -24 -15 -22 -14 4 -49 -31 -42 -43 3 -6 -1 -7 -10 -4 -14
6 -14 9 4 28 16 17 18 25 9 34 -8 8 -6 10 9 6 11 -3 25 1 32 10 18 21 19 20
13 -9z m245 19 c-3 -3 -12 -4 -19 -1 -8 3 -5 6 6 6 11 1 17 -2 13 -5z m191 -1
c-10 -2 -28 -2 -40 0 -13 2 -5 4 17 4 22 1 32 -1 23 -4z m69 1 c-3 -3 -12 -4
-19 -1 -8 3 -5 6 6 6 11 1 17 -2 13 -5z m-180 -10 c-3 -3 -12 -4 -19 -1 -8 3
-5 6 6 6 11 1 17 -2 13 -5z m-147 -14 c-14 -4 -32 -8 -40 -9 -13 -1 -13 0 0 9
8 5 26 9 40 9 l25 -1 -25 -8z m-260 -15 c0 -8 -2 -15 -4 -15 -2 0 -6 7 -10 15
-3 8 -1 15 4 15 6 0 10 -7 10 -15z m-125 -58 c-20 -49 -19 -76 5 -97 17 -15
18 -19 5 -24 -11 -4 -19 3 -25 20 -14 37 -12 69 7 109 21 45 28 39 8 -8z m255
33 c-13 -8 -12 -10 4 -10 31 0 15 -7 -34 -14 l-45 -7 35 20 c36 19 66 28 40
11z m65 0 c3 -6 -4 -10 -17 -10 -18 0 -20 2 -8 10 19 12 18 12 25 0z m-245
-20 c0 -5 -4 -10 -10 -10 -5 0 -10 5 -10 10 0 6 5 10 10 10 6 0 10 -4 10 -10z
m240 -10 c-20 -13 -33 -13 -25 0 3 6 14 10 23 10 15 0 15 -2 2 -10z m-210 -4
c0 -2 -7 -7 -16 -10 -8 -3 -12 -2 -9 4 6 10 25 14 25 6z m37 -12 c-3 -3 -12
-4 -19 -1 -8 3 -5 6 6 6 11 1 17 -2 13 -5z m560 -20 c-3 -3 -12 -4 -19 -1 -8
3 -5 6 6 6 11 1 17 -2 13 -5z m86 -1 c-7 -2 -21 -2 -30 0 -10 3 -4 5 12 5 17
0 24 -2 18 -5z m-786 -25 c-3 -8 -6 -5 -6 6 -1 11 2 17 5 13 3 -3 4 -12 1 -19z
m620 16 c-3 -3 -12 -4 -19 -1 -8 3 -5 6 6 6 11 1 17 -2 13 -5z m154 -16 c-23
-6 -37 -6 -44 1 -8 8 2 11 34 10 l44 -1 -34 -10z m-78 -5 c-7 -2 -19 -2 -25 0
-7 3 -2 5 12 5 14 0 19 -2 13 -5z m-44 -7 c-2 -2 -26 -6 -54 -10 -34 -4 -43
-3 -30 3 19 9 93 15 84 7z m-110 -20 c-11 -9 -69 -15 -64 -6 3 6 20 10 37 10
17 0 29 -2 27 -4z m-101 -23 c-10 -2 -26 -2 -35 0 -10 3 -2 5 17 5 19 0 27 -2
18 -5z m-271 -22 c-1 -12 -6 -17 -16 -13 -10 4 -11 7 -3 10 7 2 10 8 6 13 -3
5 -1 9 5 9 5 0 9 -9 8 -19z m148 10 c-12 -11 -75 -25 -75 -17 0 3 15 10 33 15
43 12 53 13 42 2z m48 2 c-7 -2 -19 -2 -25 0 -7 3 -2 5 12 5 14 0 19 -2 13 -5z
m-257 -13 c13 0 24 -4 24 -9 0 -11 -63 -3 -95 11 -15 6 -11 7 14 3 18 -3 44
-5 57 -5z m1664 -60 c-8 -5 -19 -10 -25 -10 -5 0 -3 5 5 10 8 5 20 10 25 10 6
0 3 -5 -5 -10z m-2254 -171 c13 -21 167 -87 289 -124 306 -92 656 -152 935
-160 80 -2 151 -4 158 -5 10 0 9 -5 -2 -22 -15 -24 -20 -58 -18 -116 3 -46 49
-92 94 -92 39 0 136 43 144 64 5 12 9 12 32 0 31 -16 80 -18 115 -5 17 7 40 3
82 -11 58 -19 82 -19 137 4 43 16 55 71 33 138 -17 50 -17 53 1 70 11 9 50 27
87 39 65 21 185 84 236 123 34 26 47 23 90 -19 117 -115 230 -361 271 -593 16
-91 17 -264 1 -330 -24 -98 -77 -167 -135 -177 -71 -11 -189 72 -265 187 -51
76 -53 83 -27 111 37 41 68 89 64 100 -2 7 -27 -13 -56 -43 -87 -91 -180 -131
-333 -144 -78 -7 -118 4 -149 40 -11 14 -5 24 38 70 47 50 134 210 182 336 16
40 47 90 70 107 59 47 222 -39 315 -166 17 -22 36 -41 43 -41 17 0 15 7 -9 46
-11 18 -19 46 -18 61 5 67 -1 103 -17 103 -14 0 -16 -8 -10 -52 l7 -52 -48 47
c-89 88 -207 125 -279 87 -25 -14 -85 -104 -99 -151 -28 -89 -111 -234 -176
-307 l-46 -51 -25 27 c-14 15 -72 61 -129 102 -116 84 -271 234 -309 299 -71
122 -120 160 -235 181 -86 16 -174 0 -290 -51 -107 -46 -279 -163 -338 -228
l-37 -41 -11 27 c-6 15 -17 54 -24 86 -8 33 -16 62 -19 65 -29 28 -8 -118 26
-186 24 -48 56 -73 44 -34 -13 40 235 217 408 292 98 42 200 51 288 26 70 -21
100 -44 135 -104 72 -126 174 -237 303 -332 213 -156 224 -172 148 -211 -35
-18 -60 -21 -167 -22 -111 -1 -137 2 -216 27 -111 34 -188 74 -243 126 -23 22
-44 40 -47 40 -12 0 -4 -39 11 -50 38 -32 37 -48 -7 -127 -93 -171 -215 -303
-326 -355 l-62 -30 -38 31 c-21 17 -58 37 -82 46 -48 17 -197 21 -248 6 -28
-8 -34 -6 -65 28 -43 45 -82 108 -147 236 -142 283 -210 577 -182 789 15 110
41 181 87 234 37 44 48 49 60 31z m-708 -152 c79 -96 184 -251 226 -335 98
-195 144 -453 117 -643 -20 -133 -25 -143 -74 -157 -23 -7 -48 -15 -55 -18 -8
-4 -17 7 -24 28 -6 18 -49 109 -96 201 -225 453 -276 703 -191 937 12 33 25
60 29 60 4 0 35 -33 68 -73z m449 -533 c14 -30 31 -82 39 -115 14 -59 13 -61
-16 -137 -17 -42 -44 -102 -60 -132 l-28 -55 5 78 c3 44 0 129 -7 190 -12 107
-11 114 10 170 12 31 24 57 26 57 3 0 17 -25 31 -56z m202 -269 c59 -134 152
-301 197 -355 15 -17 25 -32 23 -34 -2 -2 -20 -11 -39 -21 -19 -10 -43 -24
-52 -33 -17 -14 -18 -12 -18 24 0 47 -19 78 -63 102 -26 14 -56 17 -162 16
-71 0 -142 -3 -157 -7 -27 -7 -27 -5 42 130 83 166 108 238 123 361 l12 93 36
-113 c20 -62 46 -135 58 -163z m-814 69 c126 -44 137 -56 241 -263 l93 -184
-22 -31 c-14 -20 -22 -46 -22 -73 0 -47 -1 -48 -20 -30 -7 6 -45 39 -84 72
-174 146 -296 336 -315 492 l-7 53 33 -6 c18 -3 65 -17 103 -30z m2125 -153
c92 -30 187 -39 302 -29 105 8 146 23 175 62 l18 23 34 -26 c32 -24 41 -26
145 -26 80 0 121 5 146 16 19 9 49 20 65 26 17 6 37 13 45 17 11 4 25 -11 49
-53 48 -84 135 -172 204 -205 47 -23 67 -28 108 -24 28 3 62 14 78 25 l27 20
-21 -43 c-14 -30 -25 -41 -35 -37 -8 3 -34 8 -58 10 -35 5 -47 2 -66 -16 -12
-11 -44 -28 -72 -36 -75 -23 -151 -71 -184 -117 l-30 -41 0 35 c0 64 -12 100
-47 134 -29 29 -41 34 -81 34 -61 0 -105 -27 -127 -78 l-18 -40 -54 75 c-30
42 -52 82 -49 89 3 8 37 37 76 65 54 40 68 55 60 65 -18 21 -66 -3 -122 -60
l-51 -51 -56 53 c-36 34 -63 52 -76 50 -33 -5 -23 -23 43 -79 35 -29 93 -94
129 -144 63 -86 64 -88 22 -49 -24 22 -56 48 -70 56 -75 47 -248 64 -315 32
-19 -9 -46 -30 -61 -48 l-28 -31 -15 30 c-34 68 -123 94 -187 55 -50 -30 -63
-66 -64 -177 -2 -179 -1 -178 -106 -16 -67 103 -99 144 -122 154 -17 8 -31 16
-31 19 0 4 16 22 36 41 40 39 151 201 185 271 l22 46 56 -28 c31 -15 85 -37
121 -49z m1490 -159 c0 -74 0 -75 -20 -57 -11 10 -22 26 -25 36 -4 11 -13 19
-21 19 -12 0 -11 7 5 38 11 20 23 46 26 57 6 20 7 20 21 1 9 -13 14 -45 14
-94z m-2772 -122 c27 -17 32 -25 32 -57 -1 -65 -37 -93 -123 -93 -43 0 -56 -4
-62 -17 -4 -10 -8 -139 -10 -287 -2 -248 -4 -270 -22 -295 -29 -38 -90 -41
-123 -6 l-25 27 0 274 c0 238 -2 274 -14 269 -8 -3 -34 -9 -58 -12 -38 -5 -45
-2 -74 26 -26 27 -30 37 -25 64 15 80 143 123 371 126 83 1 105 -2 133 -19z
m1328 -51 c24 -48 0 -477 -36 -607 -11 -45 -50 -82 -84 -82 -53 0 -150 102
-261 273 -27 42 -53 77 -57 77 -5 0 -8 -69 -8 -152 0 -135 -2 -157 -20 -185
-17 -28 -25 -33 -60 -33 -45 0 -75 23 -86 65 -13 51 3 477 20 535 24 85 83
128 136 100 10 -5 75 -96 145 -201 69 -105 129 -188 132 -186 3 3 8 90 12 194
8 206 14 228 66 242 41 11 83 -6 101 -40z m1959 20 c93 -46 129 -120 88 -179
-23 -34 -33 -40 -68 -40 -31 1 -62 22 -81 55 -6 11 -27 24 -48 29 -48 12 -103
-12 -112 -50 -10 -39 20 -71 114 -123 155 -86 202 -141 203 -233 2 -96 -41
-148 -144 -180 -125 -38 -274 -11 -301 53 -16 38 -12 60 17 87 27 25 52 28
139 18 146 -16 145 28 -4 108 -133 73 -198 155 -198 249 0 91 53 169 145 214
43 21 60 24 127 20 53 -4 91 -12 123 -28z m-1612 6 c100 -26 188 -100 229
-192 30 -67 23 -197 -15 -277 -54 -117 -164 -216 -277 -251 -30 -9 -67 -23
-82 -31 -37 -20 -52 -18 -86 11 -42 35 -52 105 -52 362 0 231 9 286 56 337 53
56 122 69 227 41z m458 -15 l30 -29 -6 -273 c-8 -361 -11 -395 -40 -424 -34
-33 -87 -32 -122 2 l-26 26 7 281 c8 360 11 384 47 419 36 37 72 36 110 -2z
m-1641 -6 c70 -21 110 -60 110 -109 0 -74 -78 -109 -140 -63 -27 20 -33 20
-101 9 -87 -14 -141 -38 -137 -59 2 -10 26 -23 61 -33 79 -23 97 -41 97 -95 0
-53 -20 -69 -103 -85 -66 -13 -87 -29 -87 -65 0 -69 83 -81 258 -39 135 33
156 32 193 -4 33 -33 35 -50 14 -91 -40 -78 -383 -129 -510 -76 -45 19 -90 59
-110 96 -34 67 -25 177 21 237 25 33 31 58 15 67 -18 12 -32 96 -22 134 21 77
123 150 251 178 78 17 128 16 190 -2z m2191 0 c72 -20 113 -60 113 -109 0 -74
-81 -110 -144 -63 -28 20 -33 20 -102 9 -72 -12 -128 -36 -135 -57 -4 -12 31
-29 82 -40 49 -10 74 -31 80 -68 12 -62 -25 -97 -117 -110 -32 -5 -53 -14 -63
-29 -21 -30 -19 -44 10 -72 32 -33 88 -33 233 0 138 31 153 31 191 -1 41 -34
42 -75 3 -113 -43 -43 -185 -75 -332 -76 -104 0 -121 3 -171 26 -34 16 -68 42
-85 65 -27 35 -29 44 -29 125 0 81 2 90 31 131 l30 43 -18 40 c-21 49 -23 116
-3 154 24 48 93 98 169 125 112 40 170 44 257 20z m-1986 -71 c-15 -38 -26
-134 -32 -271 -5 -125 -8 -142 -22 -137 -41 17 -84 14 -176 -9 -106 -28 -230
-35 -223 -14 3 7 31 18 64 25 96 21 137 78 120 166 -7 37 -49 87 -74 88 -14 0
-14 2 3 9 27 12 75 12 75 1 0 -11 55 -31 87 -31 69 0 133 66 133 137 0 31 4
43 18 46 31 8 34 7 27 -10z m-1254 -88 c31 -24 68 -50 83 -56 14 -7 26 -20 26
-29 0 -10 3 -39 7 -65 l6 -48 -43 7 c-35 6 -145 48 -159 62 -2 2 2 12 10 21
13 16 12 17 -3 4 -15 -11 -22 -11 -43 3 -14 9 -23 21 -20 26 3 5 0 12 -6 16
-8 4 -9 3 -5 -4 15 -24 -10 -11 -42 23 -21 21 -31 39 -26 47 4 7 4 10 -1 6 -9
-8 -35 9 -35 22 0 15 34 19 115 14 76 -5 83 -8 136 -49z m562 -26 c-3 -28 0
-73 7 -102 11 -48 10 -55 -10 -90 -42 -71 -39 -213 6 -284 86 -131 292 -157
573 -72 36 11 71 25 78 31 11 9 20 4 44 -20 59 -60 169 -50 205 20 11 20 20
67 23 122 l6 88 35 -48 c47 -68 149 -173 184 -191 39 -20 108 -9 138 22 12 13
30 45 39 72 l16 48 7 -50 c15 -97 43 -134 114 -149 17 -4 32 -11 32 -15 0 -4
-37 -12 -82 -18 -46 -7 -121 -18 -168 -26 -313 -54 -624 -67 -840 -35 -186 27
-491 126 -529 171 -5 7 -6 29 -1 55 4 23 5 113 2 200 -2 87 -2 192 2 233 l7
75 47 3 c26 1 48 4 51 7 14 14 19 -2 14 -47z m-387 -65 c-3 -26 -6 -67 -6 -92
0 -62 -7 -50 -20 36 -13 80 -9 102 16 102 14 0 16 -7 10 -46z m2596 -96 c-9
-9 -12 -4 -11 23 0 32 1 33 11 11 8 -17 8 -26 0 -34z m338 -160 c0 -5 -4 -8
-10 -8 -5 0 -10 10 -10 23 0 18 2 19 10 7 5 -8 10 -18 10 -22z m-60 7 c11 -13
8 -15 -18 -15 -32 0 -51 15 -30 23 23 9 35 7 48 -8z m-850 -293 c40 -39 51
-62 27 -62 -15 0 -57 28 -73 48 -8 12 -12 11 -23 -2 -16 -19 -31 -12 -31 13 0
15 29 38 52 40 4 1 25 -16 48 -37z"/>
<path d="M3448 5353 c7 -3 16 -2 19 1 4 3 -2 6 -13 5 -11 0 -14 -3 -6 -6z"/>
<path d="M3190 5145 c-76 -16 -182 -53 -192 -69 -13 -19 -9 -28 10 -21 97 41
218 65 334 66 48 0 92 -2 97 -5 5 -3 12 2 15 11 4 9 1 20 -6 25 -20 12 -184 7
-258 -7z"/>
<path d="M3218 5093 c7 -3 16 -2 19 1 4 3 -2 6 -13 5 -11 0 -14 -3 -6 -6z"/>
<path d="M3555 5060 c3 -5 8 -10 11 -10 2 0 4 5 4 10 0 6 -5 10 -11 10 -5 0
-7 -4 -4 -10z"/>
<path d="M3268 4953 c7 -3 16 -2 19 1 4 3 -2 6 -13 5 -11 0 -14 -3 -6 -6z"/>
<path d="M3243 4928 c-24 -5 -43 -13 -43 -17 0 -4 78 -8 173 -9 94 0 235 -8
311 -17 77 -8 142 -13 144 -10 8 8 -15 28 -35 32 -175 30 -462 41 -550 21z"/>
<path d="M4556 4911 c-3 -5 1 -11 9 -14 9 -4 12 -1 8 9 -6 16 -10 17 -17 5z"/>
<path d="M3258 4883 c7 -3 16 -2 19 1 4 3 -2 6 -13 5 -11 0 -14 -3 -6 -6z"/>
<path d="M4605 4800 c27 -12 43 -12 25 0 -8 5 -22 9 -30 9 -10 0 -8 -3 5 -9z"/>
<path d="M3178 4733 c7 -3 16 -2 19 1 4 3 -2 6 -13 5 -11 0 -14 -3 -6 -6z"/>
<path d="M3148 4713 c7 -3 16 -2 19 1 4 3 -2 6 -13 5 -11 0 -14 -3 -6 -6z"/>
<path d="M2850 4680 c0 -5 7 -7 15 -4 8 4 15 8 15 10 0 2 -7 4 -15 4 -8 0 -15
-4 -15 -10z"/>
<path d="M3778 4363 c7 -3 16 -2 19 1 4 3 -2 6 -13 5 -11 0 -14 -3 -6 -6z"/>
<path d="M3608 4353 c6 -2 18 -2 25 0 6 3 1 5 -13 5 -14 0 -19 -2 -12 -5z"/>
<path d="M3804 4264 c-82 -74 -134 -126 -134 -134 0 -20 36 -9 70 21 19 17 54
47 78 66 41 34 56 73 28 73 -7 0 -26 -12 -42 -26z"/>
<path d="M3799 4183 l-24 -28 30 25 c17 14 32 26 34 28 2 1 0 2 -6 2 -5 0 -20
-12 -34 -27z"/>
<path d="M4168 5193 c6 -2 18 -2 25 0 6 3 1 5 -13 5 -14 0 -19 -2 -12 -5z"/>
<path d="M4433 5154 c14 -17 15 -23 5 -27 -9 -4 -9 -6 -1 -6 22 -2 23 16 0 35
l-22 19 18 -21z"/>
<path d="M4178 4703 c12 -2 32 -2 45 0 12 2 2 4 -23 4 -25 0 -35 -2 -22 -4z"/>
<path d="M4608 4373 c7 -3 16 -2 19 1 4 3 -2 6 -13 5 -11 0 -14 -3 -6 -6z"/>
<path d="M4403 4343 c9 -2 23 -2 30 0 6 3 -1 5 -18 5 -16 0 -22 -2 -12 -5z"/>
<path d="M2670 4176 c0 -2 8 -10 18 -17 15 -13 16 -12 3 4 -13 16 -21 21 -21
13z"/>
<path d="M2660 4140 c0 -5 5 -10 11 -10 5 0 7 5 4 10 -3 6 -8 10 -11 10 -2 0
-4 -4 -4 -10z"/>
<path d="M2710 4136 c0 -2 8 -10 18 -17 15 -13 16 -12 3 4 -13 16 -21 21 -21
13z"/>
<path d="M2820 4035 c13 -14 26 -25 28 -25 3 0 -5 11 -18 25 -13 14 -26 25
-28 25 -3 0 5 -11 18 -25z"/>
<path d="M2711 3484 c0 -11 3 -14 6 -6 3 7 2 16 -1 19 -3 4 -6 -2 -5 -13z"/>
<path d="M4684 3314 c-18 -14 -18 -14 6 -3 31 14 36 19 24 19 -6 0 -19 -7 -30
-16z"/>
<path d="M2958 3118 c5 -5 16 -8 23 -6 8 3 3 7 -10 11 -17 4 -21 3 -13 -5z"/>
<path d="M4513 4153 c-4 -10 -11 -22 -17 -26 -7 -6 -6 -7 3 -5 13 4 37 48 25
48 -2 0 -8 -8 -11 -17z"/>
<path d="M4308 4123 c6 -2 18 -2 25 0 6 3 1 5 -13 5 -14 0 -19 -2 -12 -5z"/>
<path d="M2097 1784 c-4 -4 -7 -13 -7 -20 0 -10 18 -13 68 -11 51 2 67 7 67
18 0 10 -16 15 -60 17 -34 2 -64 0 -68 -4z"/>
<path d="M3500 1748 c1 -19 72 -50 85 -37 7 7 3 16 -14 30 -26 21 -71 26 -71
7z"/>
<path d="M3093 1695 c-7 -20 -6 -21 40 -29 30 -6 37 -4 37 9 0 8 -12 20 -26
25 -35 14 -44 13 -51 -5z"/>
<path d="M5382 1751 c-22 -14 8 -29 67 -32 37 -3 55 0 58 8 9 25 -93 45 -125
24z"/>
<path d="M5412 1163 c-25 -3 -32 -9 -30 -21 6 -34 114 -21 126 16 4 12 -24 14
-96 5z"/>
<path d="M3960 1718 c1 -20 111 -81 124 -68 19 19 -58 80 -104 80 -11 0 -20
-6 -20 -12z"/>
<path d="M3856 1588 c-11 -41 -7 -368 4 -368 40 0 132 87 164 154 9 19 16 58
16 88 0 48 -4 58 -34 87 -18 17 -55 39 -81 47 -62 18 -62 18 -69 -8z m64 -50
c0 -7 -5 -20 -10 -28 -8 -12 -10 -9 -10 13 0 15 5 27 10 27 6 0 10 -6 10 -12z"/>
<path d="M3886 1187 c-46 -26 -58 -47 -26 -47 29 0 100 40 100 57 0 19 -30 16
-74 -10z"/>
<path d="M4350 1745 c0 -21 59 -50 74 -35 8 8 5 16 -14 30 -30 23 -60 26 -60
5z"/>
<path d="M2647 1723 c-20 -19 -5 -32 36 -30 23 1 59 -2 80 -7 31 -7 37 -6 37
8 0 9 -12 21 -26 26 -29 11 -117 13 -127 3z"/>
<path d="M2467 1174 c-17 -18 -4 -32 39 -43 25 -7 54 -9 65 -6 32 10 21 32
-18 38 -21 3 -47 9 -58 12 -11 3 -24 3 -28 -1z"/>
<path d="M4835 1719 c-11 -16 3 -24 43 -25 21 0 54 -4 75 -8 30 -7 37 -5 37 8
0 8 -9 20 -19 26 -26 13 -128 13 -136 -1z"/>
<path d="M4654 1169 c-10 -16 9 -29 56 -40 46 -10 83 -4 78 13 -2 6 -26 17
-54 24 -61 16 -71 17 -80 3z"/>
<path d="M1740 1436 c0 -2 7 -7 16 -10 8 -3 12 -2 9 4 -6 10 -25 14 -25 6z"/>
</g>
</svg>
